<svg width="673" height="531" viewBox="0 0 673 531" fill="none" xmlns="http://www.w3.org/2000/svg">
<path d="M75.2859 137.157C44.8643 95.3738 23.9618 42.9126 12.9093 1C34.2351 38.9361 60.0906 91.4835 75.2859 137.157C126.521 207.526 204.756 247.607 308.409 156C498.809 14.4 630.409 97 672.409 156C623.609 362.4 421.076 281.333 325.909 215C306.909 206 270.109 199 274.909 243C280.909 298 367.409 528 435.909 370.5C563.909 351 821.409 559.5 496.909 526C201.309 349.6 132.409 348.833 134.909 370.5C61.0759 310.833 -61.4907 199.4 38.9093 231C96.9109 249.256 96.0735 199.639 75.2859 137.157Z" fill="#FF0000"/>
<path d="M12.9093 1C42.5759 113.5 143.209 302 308.409 156C498.809 14.4 630.409 97 672.409 156C623.609 362.4 421.076 281.333 325.909 215C306.909 206 270.109 199 274.909 243C280.909 298 367.409 528 435.909 370.5C563.909 351 821.409 559.5 496.909 526C201.309 349.6 132.409 348.833 134.909 370.5C61.0759 310.833 -61.4907 199.4 38.9093 231C139.309 262.6 63.4093 90.8333 12.9093 1Z" stroke="#FF0000"/>
</svg>
